<svg width="32" height="32" viewBox="0 0 32 32" fill="none" xmlns="http://www.w3.org/2000/svg">
  <!-- Main circle -->
  <circle cx="16" cy="16" r="15" fill="#1e40af" stroke="#1e3a8a" stroke-width="1"/>
  
  <!-- Inner circle -->
  <circle cx="16" cy="16" r="11" fill="#3b82f6"/>
  
  <!-- Sepaktakraw ball design -->
  <circle cx="16" cy="16" r="8" fill="#60a5fa"/>
  
  <!-- Ball segments -->
  <path d="M16 8 Q19 9.5 20.5 12.5 Q21.5 16 20.5 19.5 Q19 22.5 16 24 Q13 22.5 11.5 19.5 Q10.5 16 11.5 12.5 Q13 9.5 16 8" fill="#93c5fd"/>
  <path d="M16 8 Q13 9.5 11.5 12.5 Q10.5 16 11.5 19.5 Q13 22.5 16 24 Q19 22.5 20.5 19.5 Q21.5 16 20.5 12.5 Q19 9.5 16 8" fill="#dbeafe"/>
  
  <!-- Center -->
  <circle cx="16" cy="16" r="4.5" fill="#1e40af"/>
  <circle cx="16" cy="16" r="2.5" fill="#fbbf24"/>
</svg>
