<svg width="100" height="100" viewBox="0 0 100 100" fill="none" xmlns="http://www.w3.org/2000/svg">
  <!-- Main circle -->
  <circle cx="50" cy="50" r="48" fill="#1e40af" stroke="#1e3a8a" stroke-width="2"/>
  
  <!-- Inner circle -->
  <circle cx="50" cy="50" r="35" fill="#3b82f6"/>
  
  <!-- Sepaktakraw ball design -->
  <circle cx="50" cy="50" r="25" fill="#60a5fa" stroke="#1e40af" stroke-width="1"/>
  
  <!-- Ball segments -->
  <path d="M50 25 Q60 30 65 40 Q67 50 65 60 Q60 70 50 75 Q40 70 35 60 Q33 50 35 40 Q40 30 50 25" fill="#93c5fd"/>
  <path d="M50 25 Q40 30 35 40 Q33 50 35 60 Q40 70 50 75 Q60 70 65 60 Q67 50 65 40 Q60 30 50 25" fill="#dbeafe"/>
  
  <!-- Center -->
  <circle cx="50" cy="50" r="15" fill="#1e40af"/>
  <circle cx="50" cy="50" r="8" fill="#fbbf24"/>
</svg>
